<svg id="Calque_1" data-name="Calque 1" xmlns="http://www.w3.org/2000/svg" viewBox="0 0 1901.65 987.3"><defs><style>.cls-1{fill:#c1d3fe;}.cls-2,.cls-4{fill:none;stroke-miterlimit:10;}.cls-2{stroke:red;stroke-width:2px;}.cls-3{fill:#edf2fb;}.cls-4{stroke:#4881d5;stroke-width:15.5px;}.cls-5{fill:#4881d5;}</style></defs><title>NuageWithoutText</title><path class="cls-1" d="M123.31,783.68c0,111.67,71.18,206.7,170.63,242.23q-7.79.48-15.7.47C134,1026.38,17,909.42,17,765.15c0-141,111.75-256,251.54-261.08q4.83-.18,9.7-.18a260.18,260.18,0,0,1,106.62,22.7c-1.46,0-2.92,0-4.4,0a256.28,256.28,0,0,0-113.38,26.27C181.92,594.73,123.31,682.37,123.31,783.68Z" transform="translate(-9.25 -46.25)"/><line class="cls-2" x1="286.02" y1="980.13" x2="268.99" y2="980.13"/><path class="cls-1" d="M393.12,440.43a176.38,176.38,0,0,0,46,118.88,260.45,260.45,0,0,0-160.89-55.42q-4.87,0-9.7.18c16.12-135.3,131.29-240.22,270.93-240.22,5.66,0,11.25.16,16.81.51A176.6,176.6,0,0,0,393.12,440.43Z" transform="translate(-9.25 -46.25)"/><path class="cls-1" d="M718,267.37a207,207,0,0,0,14.52,76.48A272.52,272.52,0,0,0,592.5,269c.72-1.13,1.43-2.26,2.18-3.38A463.56,463.56,0,0,1,852.77,73.16,206.82,206.82,0,0,0,718,267.37Z" transform="translate(-9.25 -46.25)"/><path class="cls-3" d="M1903.15,677.27c0,151.34-85.14,282.8-210.12,349.11H295.27l-1.33-.47c-99.45-35.53-170.63-130.56-170.63-242.23,0-101.31,58.61-188.95,143.77-230.86a256.28,256.28,0,0,1,113.38-26.27c1.48,0,2.94,0,4.4,0a259.82,259.82,0,0,1,54.27,32.72A176.58,176.58,0,0,1,556.28,264.36,272.91,272.91,0,0,1,592.49,269h0a272.52,272.52,0,0,1,140,74.86A207.6,207.6,0,0,1,852.77,73.16h.06A452.85,452.85,0,0,1,901,61.84l.15,0A465.8,465.8,0,0,1,983,54.58c176.93,0,330.68,99.33,408.48,245.28a394.46,394.46,0,0,1,116.73-17.53C1726.33,282.33,1903.15,459.14,1903.15,677.27Z" transform="translate(-9.25 -46.25)"/><path class="cls-1" d="M1566.56,279.92a310.24,310.24,0,0,0-53.18,8.75,6.53,6.53,0,0,0-5.56-2.28,167.27,167.27,0,0,0-22.27,2.47,6,6,0,0,0-6.31-3.42c-11.7,1.41-23.34,3.14-34.91,5.37q-8.53,1.63-17,3.61c-4.11.95-12.26,4.63-16.39,4-6.44-1-11.51,4.87-8.36,11q6.78,13.2,12.84,26.75c.1.21.2.4.31.6a58.4,58.4,0,0,0-5,6.35c-5.45,7.93,7.51,15.32,12.91,7.46,7.35-10.7,19.63-17.1,30.8-23.1a275.86,275.86,0,0,1,35.61-16,286.8,286.8,0,0,1,76.64-16.65C1576.15,294.1,1576.15,279.18,1566.56,279.92Z" transform="translate(-9.25 -46.25)"/><path class="cls-4" d="M1903.15,676.67C1903.15,828,1818,959.5,1693,1025.8H278.24C134,1025.8,17,908.83,17,764.55c0-141,111.75-256,251.54-261.06,16.12-135.31,131.29-240.22,270.93-240.22a274.8,274.8,0,0,1,53,5.14C674.63,139.51,818.81,54,983,54c176.93,0,330.67,99.33,408.48,245.27a394.46,394.46,0,0,1,116.73-17.54C1726.33,281.73,1903.15,458.55,1903.15,676.67Z" transform="translate(-9.25 -46.25)"/><path class="cls-5" d="M814.3,544.72c-41.46-26.66-99.91-19.51-133.81,16.22-6.61,7,3.92,17.52,10.54,10.54,29.51-31.1,79.72-37.06,115.74-13.88C814.86,562.8,822.35,549.9,814.3,544.72Z" transform="translate(-9.25 -46.25)"/><path class="cls-5" d="M1132,721.36c-9.46-1.62-10.68,13.24-1.28,14.86a21.09,21.09,0,0,1,8.48,3.47c-78.06,65.93-187,85.88-283.19,51A283.94,283.94,0,0,1,817,773.29q-9.56-5.19-18.69-11.1c-2.86-1.85-5.73-3.71-8.49-5.71a20.05,20.05,0,0,1-3.64-2.88l-1.34-1.75c0-.17-.1-.29-.14-.43a7.15,7.15,0,0,0,1.43-1.63,27.77,27.77,0,0,1,9.93,1.82c9,3.43,14.14-10.56,5.17-14-23.12-8.84-51.44,5-57.65,29.28-2.36,9.22,11.61,14.47,14,5.18A29.72,29.72,0,0,1,770,754.7a29.77,29.77,0,0,0,10.09,13.23c11.81,8.69,24.8,16,37.86,22.61a304.21,304.21,0,0,0,82.91,27.62c56.38,10.27,115,3.56,167.9-18.27a303.66,303.66,0,0,0,79.3-48.19,25.21,25.21,0,0,1,.9,13.13c-1.93,9.39,12.94,10.58,14.85,1.28C1168.16,745.1,1152.54,724.88,1132,721.36Z" transform="translate(-9.25 -46.25)"/><ellipse class="cls-5" cx="1155.32" cy="482.36" rx="33.28" ry="55.47"/><path class="cls-5" d="M436.65,550c-67.42-51.79-158.66-68.1-239.78-42.36-9.14,2.9-4.45,17.06,4.72,14.15,75.79-24.05,162-9.19,225.09,39.3C434.26,566.86,444.28,555.81,436.65,550Z" transform="translate(-9.25 -46.25)"/><path class="cls-5" d="M1423.09,344.09l-27.52-54.63c-4.32-8.57-17.19-1-12.88,7.53l27.53,54.63C1414.54,360.19,1427.41,352.65,1423.09,344.09Z" transform="translate(-9.25 -46.25)"/><path class="cls-5" d="M737.31,333.82C680.6,280.11,602,251.69,524,257.32c-9.51.68-9.59,15.6,0,14.91,74.13-5.35,148.75,21,202.75,72.13C733.73,351,744.29,340.44,737.31,333.82Z" transform="translate(-9.25 -46.25)"/></svg>